<svg width="24" height="24" viewBox="0 0 24 24" fill="none" xmlns="http://www.w3.org/2000/svg">
<path d="M11.4882 21.7541C11.7822 21.9111 12.1512 21.9101 12.4452 21.7531C20.4572 17.4491 21.0261 9.04011 21.0191 6.64911C21.0184 6.45694 20.9616 6.26916 20.8557 6.10877C20.7499 5.94839 20.5996 5.82235 20.4232 5.74611L12.3732 2.18011C12.245 2.12364 12.1065 2.09456 11.9665 2.09473C11.8265 2.0949 11.6881 2.12432 11.5602 2.18111L3.56615 5.74711C3.39235 5.82339 3.24414 5.94803 3.13918 6.10618C3.03422 6.26433 2.97693 6.44932 2.97415 6.63911C2.94015 9.01811 3.41915 17.4451 11.4882 21.7541ZM8.67415 10.2931L10.9672 12.5861L15.2602 8.29311L16.6742 9.70711L10.9672 15.4141L7.26015 11.7071L8.67415 10.2931V10.2931Z" fill="#4CAF50"/>
</svg>
